# xmcd
# 
# Track frame offsets:
#   150
#   18811
#   35360
#   52540
#   72990
#   91092
#   106997
#   125764
#   144170
#   161468
#   180026
#   202434
#   218565
#   234970
#   253220
# 
# Disc length: 3590 seconds
# 
# Revision: 0
# Processed by: cddbd v1.5.2PL0 Copyright (c) Steve Scherf et al.
# Submitted via: VOLTOCDX V1.0.24 
# 
DISCID=bc0e040f
DTITLE=Various Artist - Best of the New Millennium Country: Vol. 1 - Disk 2
DYEAR=2007
DGENRE=Karaoke
TTITLE0=WHEN YOU LIE NEXT TO ME - KELLIE COFFEY
TTITLE1=PROBABLY WOULDN'T BE THIS WAY - LEANN RIMES
TTITLE2=I MAY HATE MYSELF IN THE MORNING - LEE ANN WOMACK
TTITLE3=WHERE WOULD YOU BE - MARTINA MCBRIDE
TTITLE4=HOW FAR - MARTINA MCBRIDE
TTITLE5=IF YOU EVER STOP LOVING ME - MONTGOMERY GENTRY
TTITLE6=WAVE ON WAVE - PAT GREEN
TTITLE7=MAYBERRY - RASCAL FLATTS
TTITLE8=BLESS THE BROKEN ROAD - RASCAL FLATTS
TTITLE9=A REAL FINE PLACE TO START - SARA EVANS
TTITLE10=FOREVER AND FOR ALWAYS - SHANIA TWAIN
TTITLE11=GIRLS LIE TOO - TERRI CLARK
TTITLE12=COURTESY OF THE RED WHITE AND BLUE - TOBY KEITH
TTITLE13=I LOVE THIS BAR - TOBY KEITH
TTITLE14=HOT MAMA - TRACE ADKINS
EXTD=
EXTT0=
EXTT1=
EXTT2=
EXTT3=
EXTT4=
EXTT5=
EXTT6=
EXTT7=
EXTT8=
EXTT9=
EXTT10=
EXTT11=
EXTT12=
EXTT13=
EXTT14=
PLAYORDER=
